# xmcd CD database file
#
# Track frame offsets:
#	150
#	21604
#	37378
#	52954
#	80779
#	102387
#	120620
#	143097
#	165176
#	190063
#	209928
#	229760
#	253204
#
# Disc length: 3538 seconds
#
# Revision: 0
# Processed by: cddbd v1.5.2PL0 Copyright (c) Steve Scherf et al.
# Submitted via: CDex 1.79
#
DISCID=c20dd00d
DTITLE=Matt Dusk and Margaret - Just The Two Of Us
DYEAR=1900
DGENRE=Jazz
TTITLE0=Matt Dusk and Margaret - Quiet Nights of Quiet Stars 
TTITLE1=Matt Dusk and Margaret - Just the Two of Us 
TTITLE2=Matt Dusk and Margaret - Something Stupid 
TTITLE3=Matt Dusk and Margaret - Deed I Do 
TTITLE4=Matt Dusk and Margaret - Gee Baby, Ain't I Good To You 
TTITLE5=Matt Dusk and Margaret - You Are the Sunshine of My Life 
TTITLE6=Matt Dusk and Margaret - Your Kiss Is On My List 
TTITLE7=Matt Dusk and Margaret - This Masquerade 
TTITLE8=Matt Dusk and Margaret - Girl From Ipanema 
TTITLE9=Matt Dusk and Margaret - How Insensitive (Insensatez)
TTITLE10=Matt Dusk and Margaret - Our Love Is Here To Stay 
TTITLE11=Matt Dusk and Margaret - They Can't Take That Away From  Me
TTITLE12=Margaret - I Got It Bad (And That Ain't Good)
EXTD=
EXTT0=
EXTT1=
EXTT2=
EXTT3=
EXTT4=
EXTT5=
EXTT6=
EXTT7=
EXTT8=
EXTT9=
EXTT10=
EXTT11=
EXTT12=
PLAYORDER=
